<svg xmlns="http://www.w3.org/2000/svg" width="9933" height="14043" viewBox="0 0 9933 14043" fill="none">
  <defs>
    <linearGradient id="bg" x1="0" y1="0" x2="1" y2="1">
      <stop offset="0%" stop-color="#F6F0FF"/>
      <stop offset="38%" stop-color="#EEE3FF"/>
      <stop offset="72%" stop-color="#E7D8FF"/>
      <stop offset="100%" stop-color="#F8F3FF"/>
    </linearGradient>
    <radialGradient id="orb1" cx="0" cy="0" r="1" gradientUnits="userSpaceOnUse" gradientTransform="translate(1800 2200) rotate(18) scale(2500 2100)">
      <stop offset="0%" stop-color="#A855F7" stop-opacity="0.26"/>
      <stop offset="55%" stop-color="#C084FC" stop-opacity="0.14"/>
      <stop offset="100%" stop-color="#FFFFFF" stop-opacity="0"/>
    </radialGradient>
    <radialGradient id="orb2" cx="0" cy="0" r="1" gradientUnits="userSpaceOnUse" gradientTransform="translate(7900 3100) rotate(-12) scale(2300 1900)">
      <stop offset="0%" stop-color="#7C3AED" stop-opacity="0.24"/>
      <stop offset="58%" stop-color="#A78BFA" stop-opacity="0.12"/>
      <stop offset="100%" stop-color="#FFFFFF" stop-opacity="0"/>
    </radialGradient>
    <radialGradient id="orb3" cx="0" cy="0" r="1" gradientUnits="userSpaceOnUse" gradientTransform="translate(2600 11100) rotate(22) scale(2800 2300)">
      <stop offset="0%" stop-color="#9333EA" stop-opacity="0.18"/>
      <stop offset="52%" stop-color="#D8B4FE" stop-opacity="0.11"/>
      <stop offset="100%" stop-color="#FFFFFF" stop-opacity="0"/>
    </radialGradient>
    <radialGradient id="orb4" cx="0" cy="0" r="1" gradientUnits="userSpaceOnUse" gradientTransform="translate(8600 12300) rotate(-20) scale(2600 2200)">
      <stop offset="0%" stop-color="#C026D3" stop-opacity="0.16"/>
      <stop offset="54%" stop-color="#E9D5FF" stop-opacity="0.10"/>
      <stop offset="100%" stop-color="#FFFFFF" stop-opacity="0"/>
    </radialGradient>
    <linearGradient id="flow1" x1="0" y1="0" x2="1" y2="1">
      <stop offset="0%" stop-color="#FFFFFF" stop-opacity="0.0"/>
      <stop offset="50%" stop-color="#A855F7" stop-opacity="0.11"/>
      <stop offset="100%" stop-color="#FFFFFF" stop-opacity="0.0"/>
    </linearGradient>
    <linearGradient id="flow2" x1="0" y1="1" x2="1" y2="0">
      <stop offset="0%" stop-color="#FFFFFF" stop-opacity="0.0"/>
      <stop offset="50%" stop-color="#7C3AED" stop-opacity="0.10"/>
      <stop offset="100%" stop-color="#FFFFFF" stop-opacity="0.0"/>
    </linearGradient>
    <filter id="blur40" x="-20%" y="-20%" width="140%" height="140%">
      <feGaussianBlur stdDeviation="40"/>
    </filter>
    <filter id="blur80" x="-20%" y="-20%" width="140%" height="140%">
      <feGaussianBlur stdDeviation="80"/>
    </filter>
    <pattern id="grid" width="180" height="180" patternUnits="userSpaceOnUse">
      <path d="M 180 0 L 0 0 0 180" fill="none" stroke="#7C3AED" stroke-opacity="0.035" stroke-width="2"/>
    </pattern>
    <pattern id="microdots" width="48" height="48" patternUnits="userSpaceOnUse">
      <circle cx="24" cy="24" r="2.4" fill="#7C3AED" fill-opacity="0.05"/>
    </pattern>
  </defs>

  <rect width="9933" height="14043" fill="url(#bg)"/>
  <rect width="9933" height="14043" fill="url(#grid)"/>
  <rect width="9933" height="14043" fill="url(#microdots)" opacity="0.55"/>

  <g filter="url(#blur80)">
    <ellipse cx="1800" cy="2200" rx="2300" ry="1800" fill="url(#orb1)"/>
    <ellipse cx="7900" cy="3100" rx="2100" ry="1700" fill="url(#orb2)"/>
    <ellipse cx="2600" cy="11100" rx="2500" ry="2000" fill="url(#orb3)"/>
    <ellipse cx="8600" cy="12300" rx="2200" ry="1900" fill="url(#orb4)"/>
  </g>

  <g opacity="0.9" filter="url(#blur40)">
    <path d="M-600 4200 C1400 3600, 2500 5200, 4300 4700 C5900 4250, 7200 2900, 10500 3600" stroke="url(#flow1)" stroke-width="170" stroke-linecap="round"/>
    <path d="M-500 9100 C1800 9800, 3300 8200, 5100 8900 C6700 9500, 8300 10900, 10600 10100" stroke="url(#flow2)" stroke-width="160" stroke-linecap="round"/>
    <path d="M1200 200 C2200 1500, 1800 2800, 3200 3900 C4700 5100, 6600 5200, 7600 6600" stroke="url(#flow2)" stroke-width="120" stroke-linecap="round"/>
  </g>

  <g opacity="0.4">
    <circle cx="1300" cy="1700" r="14" fill="#A855F7"/>
    <circle cx="7060" cy="2480" r="10" fill="#7C3AED"/>
    <circle cx="2540" cy="10160" r="12" fill="#9333EA"/>
    <circle cx="8400" cy="11860" r="11" fill="#C026D3"/>
    <circle cx="4620" cy="6920" r="9" fill="#A855F7"/>
  </g>

  <g opacity="0.12">
    <rect x="620" y="900" width="1400" height="780" rx="46" stroke="#7C3AED" stroke-width="10"/>
    <rect x="7240" y="1560" width="1320" height="720" rx="46" stroke="#A855F7" stroke-width="10"/>
    <rect x="980" y="10840" width="1480" height="860" rx="46" stroke="#9333EA" stroke-width="10"/>
    <rect x="7200" y="11400" width="1520" height="900" rx="46" stroke="#C026D3" stroke-width="10"/>
  </g>
</svg>