<?xml version='1.0' encoding='utf-8'?>
<svg xmlns="http://www.w3.org/2000/svg" version="1.1" width="2991" height="762" viewBox="0 0 2991 762"><path d="M 2877 393 L 2880 402 L 2883 394 L 2880 397 Z" fill="#132a3e" stroke="none" /><path d="M 2943 392 L 2947 397 L 2946 393 Z" fill="#132a3e" stroke="none" /><path d="M 2952 387 L 2952 390 L 2956 392 Z" fill="#132a3e" stroke="none" /><path d="M 2936 387 L 2937 391 L 2940 392 Z" fill="#132a3e" stroke="none" /><path d="M 1013 388 L 1013 394 L 1015 397 L 1015 391 L 1026 391 L 1015 390 L 1015 386 Z" fill="#132a3e" stroke="none" /><path d="M 2927 385 L 2930 389 L 2930 395 L 2927 398 L 2928 399 L 2931 395 L 2931 389 Z" fill="#132a3e" stroke="none" /><path d="M 2839 385 L 2837 387 L 2836 394 L 2837 397 L 2840 399 L 2837 394 L 2837 390 L 2840 386 Z" fill="#132a3e" stroke="none" /><path d="M 968 385 L 966 393 L 969 397 L 967 393 L 967 389 L 969 386 Z" fill="#132a3e" stroke="none" /><path d="M 2825 384 L 2826 400 L 2827 387 Z" fill="#132a3e" stroke="none" /><path d="M 2794 384 L 2795 400 L 2796 387 Z" fill="#132a3e" stroke="none" /><path d="M 992 384 L 995 388 L 995 394 L 992 397 L 993 398 L 996 394 L 996 388 Z" fill="#132a3e" stroke="none" /><path d="M 1002 383 L 1003 399 L 1004 386 Z" fill="#132a3e" stroke="none" /><path d="M 2903 379 L 2903 400 L 2914 400 L 2904 398 Z" fill="#132a3e" stroke="none" /><path d="M 2775 379 L 2775 400 L 2788 400 L 2777 398 L 2778 389 L 2787 389 L 2778 388 L 2777 381 L 2787 379 Z" fill="#132a3e" stroke="none" /><path d="M 950 379 L 948 381 L 948 386 L 950 388 L 957 389 L 960 392 L 960 397 L 961 391 L 949 385 L 949 381 L 951 380 Z" fill="#132a3e" stroke="none" /><path d="M 220 365 L 217 373 L 220 371 Z" fill="#132a3e" stroke="none" /><path d="M 198 365 L 199 371 L 200 367 Z" fill="#132a3e" stroke="none" /><path d="M 151 363 L 149 365 L 137 365 L 138 370 L 139 366 L 151 366 Z" fill="#132a3e" stroke="none" /><path d="M 57 363 L 61 365 L 62 372 L 63 363 Z" fill="#132a3e" stroke="none" /><path d="M 157 361 L 156 369 L 158 371 Z" fill="#132a3e" stroke="none" /><path d="M 130 361 L 131 371 L 132 363 Z" fill="#132a3e" stroke="none" /><path d="M 91 360 L 93 364 L 93 368 L 91 371 L 92 372 L 94 364 Z" fill="#132a3e" stroke="none" /><path d="M 2972 358 L 2976 363 L 2975 359 Z" fill="#132a3e" stroke="none" /><path d="M 119 358 L 120 380 L 121 361 Z" fill="#132a3e" stroke="none" /><path d="M 111 358 L 110 371 L 112 374 Z" fill="#132a3e" stroke="none" /><path d="M 47 357 L 45 361 L 45 366 L 48 370 L 46 364 L 48 358 Z" fill="#132a3e" stroke="none" /><path d="M 2880 355 L 2878 357 L 2866 357 L 2867 362 L 2868 358 L 2880 358 Z" fill="#132a3e" stroke="none" /><path d="M 2786 355 L 2790 357 L 2791 364 L 2792 355 Z" fill="#132a3e" stroke="none" /><path d="M 1188 355 L 1189 361 L 1190 357 L 1202 357 L 1202 355 Z" fill="#132a3e" stroke="none" /><path d="M 238 355 L 239 363 L 240 357 Z" fill="#132a3e" stroke="none" /><path d="M 218 355 L 219 360 L 220 357 Z" fill="#132a3e" stroke="none" /><path d="M 2981 353 L 2981 356 L 2985 358 Z" fill="#132a3e" stroke="none" /><path d="M 2965 353 L 2966 357 L 2969 358 Z" fill="#132a3e" stroke="none" /><path d="M 2886 353 L 2885 361 L 2887 363 Z" fill="#132a3e" stroke="none" /><path d="M 2859 353 L 2860 363 L 2861 355 Z" fill="#132a3e" stroke="none" /><path d="M 1292 353 L 1292 357 L 1305 357 L 1305 354 L 1303 356 L 1294 356 Z" fill="#132a3e" stroke="none" /><path d="M 246 353 L 246 374 L 258 374 L 247 372 L 248 363 L 257 363 L 248 362 L 247 355 L 258 353 Z" fill="#132a3e" stroke="none" /><path d="M 234 353 L 228 353 L 228 374 L 229 366 L 234 365 L 229 363 L 229 355 Z" fill="#132a3e" stroke="none" /><path d="M 207 353 L 207 374 L 214 374 L 208 372 L 208 364 L 216 363 L 209 362 L 208 355 L 214 353 Z" fill="#132a3e" stroke="none" /><path d="M 186 353 L 186 374 L 193 374 L 187 372 L 187 364 L 196 363 L 199 359 L 199 356 L 196 354 L 198 357 L 196 362 L 188 362 L 187 355 L 193 353 Z" fill="#132a3e" stroke="none" /><path d="M 2820 352 L 2822 356 L 2822 360 L 2820 363 L 2821 364 L 2823 356 Z" fill="#132a3e" stroke="none" /><path d="M 2504 352 L 2500 352 L 2500 360 Z" fill="#132a3e" stroke="none" /><path d="M 168 352 L 167 371 L 169 374 Z" fill="#132a3e" stroke="none" /><path d="M 2956 351 L 2959 355 L 2959 361 L 2956 364 L 2957 365 L 2960 361 L 2960 355 Z" fill="#132a3e" stroke="none" /><path d="M 2936 350 L 2937 366 L 2938 353 Z" fill="#132a3e" stroke="none" /><path d="M 2848 350 L 2849 372 L 2850 353 Z" fill="#132a3e" stroke="none" /><path d="M 2840 350 L 2839 363 L 2841 366 Z" fill="#132a3e" stroke="none" /><path d="M 1359 350 L 1362 354 L 1362 360 L 1359 363 L 1360 364 L 1363 360 L 1363 354 Z" fill="#132a3e" stroke="none" /><path d="M 1217 350 L 1219 353 L 1220 365 L 1220 353 Z" fill="#132a3e" stroke="none" /><path d="M 1148 350 L 1151 354 L 1151 360 L 1148 363 L 1149 364 L 1152 360 L 1152 354 Z" fill="#132a3e" stroke="none" /><path d="M 1097 350 L 1100 354 L 1100 360 L 1097 363 L 1098 364 L 1101 360 L 1101 354 Z" fill="#132a3e" stroke="none" /><path d="M 1056 350 L 1058 354 L 1059 365 L 1059 354 Z" fill="#132a3e" stroke="none" /><path d="M 1030 350 L 1028 352 L 1027 359 L 1028 362 L 1031 364 L 1028 359 L 1028 355 L 1031 351 Z" fill="#132a3e" stroke="none" /><path d="M 967 350 L 965 352 L 964 359 L 965 362 L 968 364 L 965 359 L 965 355 L 968 351 Z" fill="#132a3e" stroke="none" /><path d="M 2776 349 L 2774 353 L 2774 358 L 2777 362 L 2775 356 L 2777 350 Z" fill="#132a3e" stroke="none" /><path d="M 1369 349 L 1370 365 L 1371 352 Z" fill="#132a3e" stroke="none" /><path d="M 1311 349 L 1312 365 L 1313 352 Z" fill="#132a3e" stroke="none" /><path d="M 1158 349 L 1159 365 L 1160 352 Z" fill="#132a3e" stroke="none" /><path d="M 2916 348 L 2914 352 L 2914 359 L 2917 363 L 2915 359 L 2915 352 L 2917 349 Z" fill="#132a3e" stroke="none" /><path d="M 1258 348 L 1257 349 L 1260 357 L 1251 358 L 1250 357 L 1253 351 L 1252 350 L 1247 365 L 1250 359 L 1260 359 L 1264 365 Z" fill="#132a3e" stroke="none" /><path d="M 2479 347 L 2477 352 L 2480 355 L 2478 352 L 2480 348 Z" fill="#132a3e" stroke="none" /><path d="M 959 347 L 960 353 L 961 348 Z" fill="#132a3e" stroke="none" /><path d="M 782 346 L 779 347 L 780 350 L 778 354 Z" fill="#132a3e" stroke="none" /><path d="M 1330 345 L 1330 348 L 1328 350 L 1330 351 L 1331 360 L 1331 351 L 1337 349 L 1332 349 Z" fill="#132a3e" stroke="none" /><path d="M 1281 345 L 1281 348 L 1279 350 L 1281 351 L 1282 363 L 1282 351 L 1287 349 L 1283 349 Z" fill="#132a3e" stroke="none" /><path d="M 1269 345 L 1269 348 L 1267 350 L 1269 351 L 1270 363 L 1270 351 L 1275 349 L 1271 349 Z" fill="#132a3e" stroke="none" /><path d="M 1227 345 L 1227 348 L 1225 350 L 1227 351 L 1227 362 L 1229 364 L 1228 351 L 1234 349 L 1229 349 Z" fill="#132a3e" stroke="none" /><path d="M 1177 345 L 1177 348 L 1175 350 L 1177 351 L 1178 360 L 1178 351 L 1184 349 L 1179 349 Z" fill="#132a3e" stroke="none" /><path d="M 1123 345 L 1118 350 L 1118 359 L 1121 363 L 1124 364 L 1119 358 L 1119 351 L 1124 346 Z" fill="#132a3e" stroke="none" /><path d="M 1077 345 L 1077 348 L 1075 350 L 1077 351 L 1078 363 L 1078 351 L 1083 349 L 1079 349 Z" fill="#132a3e" stroke="none" /><path d="M 1008 345 L 1008 348 L 1006 350 L 1008 351 L 1009 363 L 1009 351 L 1014 349 L 1010 349 Z" fill="#132a3e" stroke="none" /><path d="M 2897 344 L 2896 363 L 2898 366 Z" fill="#132a3e" stroke="none" /><path d="M 2514 344 L 2514 348 L 2527 348 L 2527 345 L 2525 347 L 2516 347 Z" fill="#132a3e" stroke="none" /><path d="M 2488 344 L 2487 346 L 2483 347 L 2488 348 L 2489 356 Z" fill="#132a3e" stroke="none" /><path d="M 1257 345 L 1254 344 L 1253 348 Z" fill="#132a3e" stroke="none" /><path d="M 954 344 L 948 344 L 948 365 L 950 365 L 950 357 L 955 356 L 950 354 L 950 346 Z" fill="#132a3e" stroke="none" /><path d="M 710 344 L 711 348 L 713 349 Z" fill="#132a3e" stroke="none" /><path d="M 644 344 L 645 348 L 647 349 Z" fill="#132a3e" stroke="none" /><path d="M 1833 343 L 1833 347 L 1835 349 Z" fill="#132a3e" stroke="none" /><path d="M 756 342 L 755 346 L 758 349 L 756 346 Z" fill="#132a3e" stroke="none" /><path d="M 2533 340 L 2534 356 L 2535 343 Z" fill="#132a3e" stroke="none" /><path d="M 1839 340 L 1844 342 L 1843 347 L 1845 350 L 1845 339 Z" fill="#132a3e" stroke="none" /><path d="M 792 339 L 792 345 L 795 349 L 796 348 L 793 345 L 794 342 L 805 342 L 805 339 L 803 341 L 794 341 Z" fill="#132a3e" stroke="none" /><path d="M 1990 338 L 1990 342 L 2003 342 L 2003 339 L 2001 341 L 1992 341 Z" fill="#132a3e" stroke="none" /><path d="M 1899 339 L 1899 345 L 1901 348 L 1901 342 L 1912 342 L 1901 341 L 1901 337 Z" fill="#132a3e" stroke="none" /><path d="M 2461 335 L 2461 356 L 2473 356 L 2463 354 L 2463 335 Z" fill="#132a3e" stroke="none" /><path d="M 2057 335 L 2060 339 L 2060 345 L 2057 348 L 2058 349 L 2061 345 L 2061 339 Z" fill="#132a3e" stroke="none" /><path d="M 1854 335 L 1851 339 L 1851 345 L 1855 349 L 1852 345 L 1852 339 L 1855 336 Z" fill="#132a3e" stroke="none" /><path d="M 1826 336 L 1825 341 L 1816 341 L 1815 339 L 1818 335 L 1815 337 L 1814 345 L 1816 348 L 1816 342 L 1827 342 Z" fill="#132a3e" stroke="none" /><path d="M 713 335 L 711 336 L 710 340 Z" fill="#132a3e" stroke="none" /><path d="M 647 335 L 645 336 L 644 340 Z" fill="#132a3e" stroke="none" /><path d="M 637 336 L 636 341 L 627 341 L 626 339 L 629 335 L 626 337 L 625 345 L 627 348 L 627 342 L 638 342 Z" fill="#132a3e" stroke="none" /><path d="M 586 335 L 588 338 L 589 350 L 589 338 Z" fill="#132a3e" stroke="none" /><path d="M 2067 334 L 2068 350 L 2069 337 Z" fill="#132a3e" stroke="none" /><path d="M 2009 334 L 2010 350 L 2011 337 Z" fill="#132a3e" stroke="none" /><path d="M 811 334 L 812 350 L 813 337 Z" fill="#132a3e" stroke="none" /><path d="M 722 334 L 720 354 L 722 352 Z" fill="#132a3e" stroke="none" /><path d="M 691 334 L 692 350 L 693 337 Z" fill="#132a3e" stroke="none" /><path d="M 577 334 L 578 350 L 579 337 Z" fill="#132a3e" stroke="none" /><path d="M 1956 333 L 1955 334 L 1958 342 L 1949 343 L 1948 342 L 1951 336 L 1950 335 L 1945 350 L 1948 344 L 1958 344 L 1962 350 Z" fill="#132a3e" stroke="none" /><path d="M 1881 332 L 1880 336 L 1883 339 L 1892 342 L 1893 345 L 1890 348 L 1891 349 L 1894 346 L 1893 341 L 1884 338 L 1881 335 Z" fill="#132a3e" stroke="none" /><path d="M 2028 330 L 2028 333 L 2026 335 L 2028 336 L 2029 345 L 2029 336 L 2035 334 L 2030 334 Z" fill="#132a3e" stroke="none" /><path d="M 1979 330 L 1979 333 L 1977 335 L 1979 336 L 1980 348 L 1980 336 L 1985 334 L 1981 334 Z" fill="#132a3e" stroke="none" /><path d="M 1967 330 L 1967 333 L 1965 335 L 1967 336 L 1968 348 L 1968 336 L 1973 334 L 1969 334 Z" fill="#132a3e" stroke="none" /><path d="M 1928 330 L 1928 333 L 1925 335 L 1928 336 L 1929 350 L 1929 336 L 1933 334 L 1930 334 Z" fill="#132a3e" stroke="none" /><path d="M 1955 330 L 1952 329 L 1951 333 Z" fill="#132a3e" stroke="none" /><path d="M 1792 329 L 1792 350 L 1794 350 L 1795 339 L 1805 339 L 1807 350 L 1807 329 L 1805 338 L 1795 338 L 1794 329 Z" fill="#132a3e" stroke="none" /><path d="M 740 329 L 740 350 L 751 350 L 741 348 Z" fill="#132a3e" stroke="none" /><path d="M 558 329 L 558 350 L 571 350 L 560 348 L 561 339 L 570 339 L 561 338 L 560 331 L 570 329 Z" fill="#132a3e" stroke="none" /><path d="M 1863 328 L 1862 347 L 1864 350 Z" fill="#132a3e" stroke="none" /><path d="M 2643 317 L 2644 321 L 2646 322 Z" fill="#132a3e" stroke="none" /><path d="M 2486 313 L 2487 319 L 2488 315 L 2500 315 L 2500 313 Z" fill="#132a3e" stroke="none" /><path d="M 2516 311 L 2515 313 L 2511 314 L 2516 315 L 2517 323 Z" fill="#132a3e" stroke="none" /><path d="M 2589 310 L 2588 318 L 2590 320 Z" fill="#132a3e" stroke="none" /><path d="M 1973 310 L 1974 314 L 1976 315 Z" fill="#132a3e" stroke="none" /><path d="M 646 310 L 648 316 L 650 316 L 652 311 L 649 314 Z" fill="#132a3e" stroke="none" /><path d="M 2580 309 L 2582 313 L 2582 317 L 2580 320 L 2581 321 L 2583 313 Z" fill="#132a3e" stroke="none" /><path d="M 1013 311 L 1013 317 L 1015 320 L 1015 314 L 1026 314 L 1015 313 L 1015 309 Z" fill="#132a3e" stroke="none" /><path d="M 2646 308 L 2644 309 L 2643 313 Z" fill="#132a3e" stroke="none" /><path d="M 2597 308 L 2600 312 L 2600 318 L 2597 321 L 2598 322 L 2601 318 L 2601 312 Z" fill="#132a3e" stroke="none" /><path d="M 968 308 L 966 316 L 969 320 L 967 316 L 967 312 L 969 309 Z" fill="#132a3e" stroke="none" /><path d="M 2655 307 L 2653 327 L 2655 325 Z" fill="#132a3e" stroke="none" /><path d="M 2624 307 L 2625 323 L 2626 310 Z" fill="#132a3e" stroke="none" /><path d="M 992 307 L 995 311 L 995 317 L 992 320 L 993 321 L 996 317 L 996 311 Z" fill="#132a3e" stroke="none" /><path d="M 1895 306 L 1900 308 L 1899 313 L 1901 316 L 1901 306 Z" fill="#132a3e" stroke="none" /><path d="M 1002 306 L 1003 322 L 1004 309 Z" fill="#132a3e" stroke="none" /><path d="M 1839 305 L 1839 311 L 1842 315 L 1843 314 L 1840 311 L 1841 308 L 1852 308 L 1852 305 L 1850 307 L 1841 307 Z" fill="#132a3e" stroke="none" /><path d="M 2565 304 L 2565 309 L 2563 313 L 2566 310 Z" fill="#132a3e" stroke="none" /><path d="M 674 304 L 672 307 L 663 307 L 661 305 L 662 313 L 665 315 L 662 309 L 674 308 Z" fill="#132a3e" stroke="none" /><path d="M 615 304 L 614 306 L 610 307 L 615 308 L 616 316 Z" fill="#132a3e" stroke="none" /><path d="M 590 304 L 588 307 L 579 307 L 577 305 L 578 313 L 581 315 L 578 309 L 590 308 Z" fill="#132a3e" stroke="none" /><path d="M 1823 303 L 1823 306 L 1827 308 Z" fill="#132a3e" stroke="none" /><path d="M 780 303 L 782 312 L 782 304 Z" fill="#132a3e" stroke="none" /><path d="M 717 303 L 719 312 L 719 304 Z" fill="#132a3e" stroke="none" /><path d="M 2560 302 L 2554 302 L 2554 323 L 2555 315 L 2560 314 L 2555 312 L 2555 304 Z" fill="#132a3e" stroke="none" /><path d="M 2477 302 L 2477 304 L 2479 305 L 2480 323 L 2480 302 Z" fill="#132a3e" stroke="none" /><path d="M 2464 302 L 2461 302 L 2461 323 L 2462 305 L 2464 304 Z" fill="#132a3e" stroke="none" /><path d="M 950 302 L 948 304 L 948 309 L 950 311 L 957 312 L 960 315 L 960 320 L 961 314 L 949 308 L 949 304 L 951 303 Z" fill="#132a3e" stroke="none" /><path d="M 817 302 L 818 305 L 813 307 L 818 308 L 817 313 L 819 316 L 819 304 Z" fill="#132a3e" stroke="none" /><path d="M 1976 301 L 1974 302 L 1973 306 Z" fill="#132a3e" stroke="none" /><path d="M 1966 302 L 1965 307 L 1956 307 L 1955 305 L 1958 301 L 1955 303 L 1954 311 L 1956 314 L 1956 308 L 1967 308 Z" fill="#132a3e" stroke="none" /><path d="M 1929 301 L 1927 303 L 1926 310 L 1927 313 L 1930 315 L 1927 310 L 1927 306 L 1930 302 Z" fill="#132a3e" stroke="none" /><path d="M 1917 301 L 1919 304 L 1920 316 L 1920 304 Z" fill="#132a3e" stroke="none" /><path d="M 772 301 L 769 305 L 769 311 L 773 315 L 770 311 L 770 305 L 773 302 Z" fill="#132a3e" stroke="none" /><path d="M 709 301 L 706 305 L 706 311 L 710 315 L 707 311 L 707 305 L 710 302 Z" fill="#132a3e" stroke="none" /><path d="M 2028 300 L 2028 311 L 2031 315 L 2029 311 Z" fill="#132a3e" stroke="none" /><path d="M 1938 300 L 1937 313 L 1939 317 Z" fill="#132a3e" stroke="none" /><path d="M 1908 300 L 1909 316 L 1910 303 Z" fill="#132a3e" stroke="none" /><path d="M 1858 300 L 1859 316 L 1860 303 Z" fill="#132a3e" stroke="none" /><path d="M 1806 298 L 1808 303 L 1808 308 L 1806 312 L 1807 313 L 1809 309 L 1809 302 Z" fill="#132a3e" stroke="none" /><path d="M 2056 296 L 2056 299 L 2054 301 L 2056 302 L 2056 313 L 2058 315 L 2057 302 L 2063 300 L 2058 300 Z" fill="#132a3e" stroke="none" /><path d="M 750 296 L 750 299 L 748 301 L 750 302 L 751 314 L 751 302 L 756 300 L 752 300 Z" fill="#132a3e" stroke="none" /><path d="M 699 296 L 701 298 L 701 304 L 699 305 L 700 306 L 703 300 Z" fill="#132a3e" stroke="none" /><path d="M 2018 295 L 2017 298 L 2020 298 L 2021 316 L 2021 295 Z" fill="#132a3e" stroke="none" /><path d="M 2005 295 L 2003 295 L 2003 316 L 2004 298 L 2006 297 Z" fill="#132a3e" stroke="none" /><path d="M 1792 295 L 1792 316 L 1798 316 L 1794 314 L 1794 297 L 1798 295 Z" fill="#132a3e" stroke="none" /><path d="M 696 295 L 690 295 L 690 316 L 691 308 L 696 307 L 691 305 L 691 297 Z" fill="#132a3e" stroke="none" /><path d="M 565 295 L 558 295 L 558 316 L 560 316 L 560 307 L 567 306 L 571 302 L 571 299 L 569 297 L 570 301 L 567 305 L 560 304 L 560 297 Z" fill="#132a3e" stroke="none" /><path d="M 2656 283 L 2656 287 L 2658 289 Z" fill="#132a3e" stroke="none" /><path d="M 2662 280 L 2667 282 L 2666 287 L 2668 290 L 2668 279 Z" fill="#132a3e" stroke="none" /><path d="M 2142 277 L 2138 277 L 2138 285 Z" fill="#132a3e" stroke="none" /><path d="M 1292 277 L 1292 281 L 1305 281 L 1305 278 L 1303 280 L 1294 280 Z" fill="#132a3e" stroke="none" /><path d="M 1031 277 L 1029 280 L 1020 280 L 1018 278 L 1019 286 L 1022 288 L 1019 282 L 1031 281 Z" fill="#132a3e" stroke="none" /><path d="M 2677 275 L 2674 279 L 2674 285 L 2678 289 L 2675 285 L 2675 279 L 2678 276 Z" fill="#132a3e" stroke="none" /><path d="M 2649 276 L 2648 281 L 2639 281 L 2638 279 L 2641 275 L 2638 277 L 2637 285 L 2639 288 L 2639 282 L 2650 282 Z" fill="#132a3e" stroke="none" /><path d="M 1202 275 L 1200 283 L 1203 287 L 1201 283 L 1201 279 L 1203 276 Z" fill="#132a3e" stroke="none" /><path d="M 1139 275 L 1137 283 L 1140 287 L 1138 283 L 1138 279 L 1140 276 Z" fill="#132a3e" stroke="none" /><path d="M 1092 275 L 1090 283 L 1093 287 L 1091 283 L 1091 279 L 1093 276 Z" fill="#132a3e" stroke="none" /><path d="M 1359 274 L 1362 278 L 1362 284 L 1359 287 L 1360 288 L 1363 284 L 1363 278 Z" fill="#132a3e" stroke="none" /><path d="M 1229 274 L 1231 277 L 1232 289 L 1232 277 Z" fill="#132a3e" stroke="none" /><path d="M 997 274 L 999 278 L 1000 289 L 1000 278 Z" fill="#132a3e" stroke="none" /><path d="M 971 274 L 969 276 L 968 283 L 969 286 L 972 288 L 969 283 L 969 279 L 972 275 Z" fill="#132a3e" stroke="none" /><path d="M 303 274 L 299 274 L 299 282 Z" fill="#132a3e" stroke="none" /><path d="M 1369 273 L 1370 289 L 1371 276 Z" fill="#132a3e" stroke="none" /><path d="M 1311 273 L 1312 289 L 1313 276 Z" fill="#132a3e" stroke="none" /><path d="M 1037 273 L 1038 289 L 1039 276 Z" fill="#132a3e" stroke="none" /><path d="M 2117 272 L 2115 277 L 2118 280 L 2116 277 L 2118 273 Z" fill="#132a3e" stroke="none" /><path d="M 1258 272 L 1257 273 L 1260 281 L 1251 282 L 1250 281 L 1253 275 L 1252 274 L 1247 289 L 1250 283 L 1260 283 L 1264 289 Z" fill="#132a3e" stroke="none" /><path d="M 949 272 L 947 276 L 947 281 L 950 285 L 948 279 L 950 273 Z" fill="#132a3e" stroke="none" /><path d="M 1132 270 L 1133 278 L 1134 272 Z" fill="#132a3e" stroke="none" /><path d="M 2615 269 L 2615 290 L 2617 290 L 2618 279 L 2628 279 L 2630 290 L 2630 269 L 2628 278 L 2618 278 L 2617 269 Z" fill="#132a3e" stroke="none" /><path d="M 2152 269 L 2152 273 L 2165 273 L 2165 270 L 2163 272 L 2154 272 Z" fill="#132a3e" stroke="none" /><path d="M 2126 269 L 2125 271 L 2121 272 L 2126 273 L 2127 281 Z" fill="#132a3e" stroke="none" /><path d="M 1330 269 L 1330 272 L 1328 274 L 1330 275 L 1331 284 L 1331 275 L 1337 273 L 1332 273 Z" fill="#132a3e" stroke="none" /><path d="M 1281 269 L 1281 272 L 1279 274 L 1281 275 L 1282 287 L 1282 275 L 1287 273 L 1283 273 Z" fill="#132a3e" stroke="none" /><path d="M 1269 269 L 1269 272 L 1267 274 L 1269 275 L 1270 287 L 1270 275 L 1275 273 L 1271 273 Z" fill="#132a3e" stroke="none" /><path d="M 1181 269 L 1181 272 L 1179 274 L 1181 275 L 1181 286 L 1183 288 L 1182 275 L 1188 273 L 1183 273 Z" fill="#132a3e" stroke="none" /><path d="M 1057 269 L 1057 272 L 1055 274 L 1057 275 L 1058 287 L 1058 275 L 1063 273 L 1059 273 Z" fill="#132a3e" stroke="none" /><path d="M 1007 269 L 1007 272 L 1005 274 L 1007 275 L 1008 287 L 1008 275 L 1013 273 L 1009 273 Z" fill="#132a3e" stroke="none" /><path d="M 278 269 L 276 274 L 279 277 L 277 274 L 279 270 Z" fill="#132a3e" stroke="none" /><path d="M 2686 268 L 2685 287 L 2687 290 Z" fill="#132a3e" stroke="none" /><path d="M 1257 269 L 1254 268 L 1253 272 Z" fill="#132a3e" stroke="none" /><path d="M 1128 268 L 1122 268 L 1122 289 L 1123 281 L 1128 280 L 1123 278 L 1123 270 Z" fill="#132a3e" stroke="none" /><path d="M 2256 266 L 2258 269 L 2259 281 L 2259 269 Z" fill="#132a3e" stroke="none" /><path d="M 2208 266 L 2206 268 L 2205 275 L 2206 278 L 2209 280 L 2206 275 L 2206 271 L 2209 267 Z" fill="#132a3e" stroke="none" /><path d="M 313 266 L 313 270 L 326 270 L 326 267 L 324 269 L 315 269 Z" fill="#132a3e" stroke="none" /><path d="M 287 266 L 286 268 L 282 269 L 287 270 L 288 278 Z" fill="#132a3e" stroke="none" /><path d="M 2171 265 L 2172 281 L 2173 268 Z" fill="#132a3e" stroke="none" /><path d="M 332 262 L 333 278 L 334 265 Z" fill="#132a3e" stroke="none" /><path d="M 2199 260 L 2198 277 L 2196 278 L 2191 270 L 2196 281 L 2199 281 Z" fill="#132a3e" stroke="none" /><path d="M 2186 260 L 2184 260 L 2184 281 L 2185 264 L 2186 263 L 2189 266 Z" fill="#132a3e" stroke="none" /><path d="M 2099 260 L 2099 281 L 2111 281 L 2101 279 L 2101 260 Z" fill="#132a3e" stroke="none" /><path d="M 260 257 L 260 278 L 272 278 L 262 276 L 262 257 Z" fill="#132a3e" stroke="none" /><path d="M 2739 249 L 2738 253 L 2741 256 L 2739 253 Z" fill="#132a3e" stroke="none" /><path d="M 2685 249 L 2689 254 L 2688 250 Z" fill="#132a3e" stroke="none" /><path d="M 2788 244 L 2790 253 L 2790 245 Z" fill="#132a3e" stroke="none" /><path d="M 2678 244 L 2679 248 L 2682 249 Z" fill="#132a3e" stroke="none" /><path d="M 2654 243 L 2655 246 L 2650 248 L 2655 249 L 2654 254 L 2656 257 L 2656 245 Z" fill="#132a3e" stroke="none" /><path d="M 2780 242 L 2777 246 L 2777 252 L 2781 256 L 2778 252 L 2778 246 L 2781 243 Z" fill="#132a3e" stroke="none" /><path d="M 2158 242 L 2159 246 L 2161 247 L 2162 243 L 2160 244 Z" fill="#132a3e" stroke="none" /><path d="M 2148 242 L 2149 247 L 2151 247 L 2151 244 Z" fill="#132a3e" stroke="none" /><path d="M 2617 240 L 2615 244 L 2615 249 L 2618 253 L 2616 247 L 2618 241 Z" fill="#132a3e" stroke="none" /><path d="M 2171 239 L 2170 243 L 2173 246 L 2171 243 Z" fill="#132a3e" stroke="none" /><path d="M 2758 237 L 2758 240 L 2756 242 L 2758 243 L 2759 255 L 2759 243 L 2764 241 L 2760 241 Z" fill="#132a3e" stroke="none" /><path d="M 2372 237 L 2377 239 L 2376 244 L 2378 247 L 2378 237 Z" fill="#132a3e" stroke="none" /><path d="M 2284 237 L 2286 245 L 2286 239 L 2298 239 Z" fill="#132a3e" stroke="none" /><path d="M 2706 236 L 2704 240 L 2701 241 L 2704 243 L 2704 257 L 2705 243 L 2709 242 L 2705 240 Z" fill="#132a3e" stroke="none" /><path d="M 2328 234 L 2327 242 L 2329 244 Z" fill="#132a3e" stroke="none" /><path d="M 307 234 L 309 242 L 309 236 L 321 236 Z" fill="#132a3e" stroke="none" /><path d="M 2125 233 L 2127 237 L 2127 241 L 2125 244 L 2126 245 L 2128 237 Z" fill="#132a3e" stroke="none" /><path d="M 1013 235 L 1013 241 L 1015 244 L 1015 238 L 1026 238 L 1015 237 L 1015 233 Z" fill="#132a3e" stroke="none" /><path d="M 436 233 L 434 235 L 422 235 L 423 240 L 424 236 L 436 236 Z" fill="#132a3e" stroke="none" /><path d="M 968 232 L 966 240 L 969 244 L 967 240 L 967 236 L 969 233 Z" fill="#132a3e" stroke="none" /><path d="M 2347 231 L 2347 243 L 2350 246 L 2348 243 Z" fill="#132a3e" stroke="none" /><path d="M 2154 231 L 2154 233 L 2157 235 L 2156 231 Z" fill="#132a3e" stroke="none" /><path d="M 2134 231 L 2135 247 L 2136 234 Z" fill="#132a3e" stroke="none" /><path d="M 992 231 L 995 235 L 995 241 L 992 244 L 993 245 L 996 241 L 996 235 Z" fill="#132a3e" stroke="none" /><path d="M 508 231 L 507 239 L 509 241 Z" fill="#132a3e" stroke="none" /><path d="M 442 231 L 441 239 L 443 241 Z" fill="#132a3e" stroke="none" /><path d="M 415 231 L 416 241 L 417 233 Z" fill="#132a3e" stroke="none" /><path d="M 385 231 L 386 244 L 387 232 Z" fill="#132a3e" stroke="none" /><path d="M 1002 230 L 1003 246 L 1004 233 Z" fill="#132a3e" stroke="none" /><path d="M 274 230 L 272 238 L 275 242 L 273 238 L 273 234 L 275 231 Z" fill="#132a3e" stroke="none" /><path d="M 2412 229 L 2412 236 L 2404 238 L 2411 238 L 2413 247 L 2413 239 L 2421 237 L 2414 237 Z" fill="#132a3e" stroke="none" /><path d="M 2239 229 L 2239 236 L 2231 238 L 2238 238 L 2240 247 L 2240 239 L 2248 237 L 2241 237 Z" fill="#132a3e" stroke="none" /><path d="M 498 229 L 500 232 L 501 244 L 501 232 Z" fill="#132a3e" stroke="none" /><path d="M 463 229 L 460 233 L 460 239 L 464 243 L 461 239 L 461 233 L 464 230 Z" fill="#132a3e" stroke="none" /><path d="M 394 229 L 396 232 L 397 244 L 397 232 Z" fill="#132a3e" stroke="none" /><path d="M 336 229 L 338 232 L 339 244 L 339 232 Z" fill="#132a3e" stroke="none" /><path d="M 519 228 L 518 241 L 520 244 Z" fill="#132a3e" stroke="none" /><path d="M 2276 227 L 2276 235 L 2268 236 L 2267 228 L 2272 226 L 2266 226 L 2266 247 L 2267 238 L 2275 238 L 2275 236 L 2278 234 L 2278 229 Z" fill="#132a3e" stroke="none" /><path d="M 2110 226 L 2099 226 L 2099 247 L 2101 247 L 2101 237 L 2109 236 L 2102 235 L 2101 228 Z" fill="#132a3e" stroke="none" /><path d="M 950 226 L 948 228 L 948 233 L 950 235 L 957 236 L 960 239 L 960 244 L 961 238 L 949 232 L 949 228 L 951 227 Z" fill="#132a3e" stroke="none" /><path d="M 2339 225 L 2338 244 L 2340 247 Z" fill="#132a3e" stroke="none" /><path d="M 2213 225 L 2212 244 L 2214 247 Z" fill="#132a3e" stroke="none" /><path d="M 356 223 L 356 244 L 368 244 L 357 242 L 358 233 L 368 233 L 358 232 L 357 225 L 368 223 Z" fill="#132a3e" stroke="none" /><path d="M 258 223 L 266 225 L 267 244 L 267 225 L 275 223 Z" fill="#132a3e" stroke="none" /><path d="M 472 222 L 471 241 L 473 244 Z" fill="#132a3e" stroke="none" /><path d="M 453 222 L 452 241 L 454 244 Z" fill="#132a3e" stroke="none" /><path d="M 404 222 L 405 244 L 406 231 Z" fill="#132a3e" stroke="none" /><path d="M 2684 213 L 2689 215 L 2688 220 L 2690 223 L 2690 213 Z" fill="#132a3e" stroke="none" /><path d="M 2672 211 L 2670 214 L 2661 214 L 2659 212 L 2660 220 L 2663 222 L 2660 216 L 2672 215 Z" fill="#132a3e" stroke="none" /><path d="M 2230 211 L 2230 213 L 2232 214 L 2233 211 Z" fill="#132a3e" stroke="none" /><path d="M 2244 208 L 2241 211 L 2241 214 L 2243 214 Z" fill="#132a3e" stroke="none" /><path d="M 2697 207 L 2698 223 L 2699 210 Z" fill="#132a3e" stroke="none" /><path d="M 2267 206 L 2271 211 L 2270 207 Z" fill="#132a3e" stroke="none" /><path d="M 2339 203 L 2339 209 L 2342 213 L 2343 212 L 2340 209 L 2341 206 L 2352 206 L 2352 203 L 2350 205 L 2341 205 Z" fill="#132a3e" stroke="none" /><path d="M 2615 202 L 2615 223 L 2627 223 L 2617 221 L 2617 202 Z" fill="#132a3e" stroke="none" /><path d="M 1294 202 L 1296 210 L 1296 204 L 1308 204 Z" fill="#132a3e" stroke="none" /><path d="M 2320 203 L 2320 209 L 2322 212 L 2322 206 L 2333 206 L 2322 205 L 2322 201 Z" fill="#132a3e" stroke="none" /><path d="M 2260 201 L 2261 205 L 2264 206 Z" fill="#132a3e" stroke="none" /><path d="M 1031 200 L 1029 203 L 1020 203 L 1018 201 L 1019 209 L 1022 211 L 1019 205 L 1031 204 Z" fill="#132a3e" stroke="none" /><path d="M 2360 199 L 2358 201 L 2357 208 L 2358 211 L 2361 213 L 2358 208 L 2358 204 L 2361 200 Z" fill="#132a3e" stroke="none" /><path d="M 2288 200 L 2287 205 L 2278 205 L 2277 203 L 2280 199 L 2277 201 L 2276 209 L 2278 212 L 2278 206 L 2289 206 Z" fill="#132a3e" stroke="none" /><path d="M 2207 199 L 2209 203 L 2210 214 L 2210 203 Z" fill="#132a3e" stroke="none" /><path d="M 2181 199 L 2179 201 L 2178 208 L 2179 211 L 2182 213 L 2179 208 L 2179 204 L 2182 200 Z" fill="#132a3e" stroke="none" /><path d="M 2118 199 L 2116 201 L 2115 208 L 2116 211 L 2119 213 L 2116 208 L 2116 204 L 2119 200 Z" fill="#132a3e" stroke="none" /><path d="M 1354 198 L 1352 206 L 1355 210 L 1353 206 L 1353 202 L 1355 199 Z" fill="#132a3e" stroke="none" /><path d="M 1143 198 L 1141 206 L 1144 210 L 1142 206 L 1142 202 L 1144 199 Z" fill="#132a3e" stroke="none" /><path d="M 1092 198 L 1090 206 L 1093 210 L 1091 206 L 1091 202 L 1093 199 Z" fill="#132a3e" stroke="none" /><path d="M 1381 197 L 1383 200 L 1384 212 L 1384 200 Z" fill="#132a3e" stroke="none" /><path d="M 1323 197 L 1325 200 L 1326 212 L 1326 200 Z" fill="#132a3e" stroke="none" /><path d="M 1203 198 L 1202 203 L 1193 203 L 1192 201 L 1195 197 L 1192 199 L 1191 207 L 1193 210 L 1193 204 L 1204 204 Z" fill="#132a3e" stroke="none" /><path d="M 1170 197 L 1172 200 L 1173 212 L 1173 200 Z" fill="#132a3e" stroke="none" /><path d="M 997 197 L 999 201 L 1000 212 L 1000 201 Z" fill="#132a3e" stroke="none" /><path d="M 971 197 L 969 199 L 968 206 L 969 209 L 972 211 L 969 206 L 969 202 L 972 198 Z" fill="#132a3e" stroke="none" /><path d="M 2110 196 L 2111 202 L 2112 197 Z" fill="#132a3e" stroke="none" /><path d="M 1255 196 L 1249 212 L 1251 211 L 1253 206 L 1263 206 L 1266 211 L 1261 196 L 1260 197 L 1263 204 L 1253 204 L 1256 197 Z" fill="#132a3e" stroke="none" /><path d="M 1037 196 L 1038 212 L 1039 199 Z" fill="#132a3e" stroke="none" /><path d="M 1122 195 L 1120 203 L 1123 208 Z" fill="#132a3e" stroke="none" /><path d="M 949 195 L 947 199 L 947 204 L 950 208 L 948 202 L 950 196 Z" fill="#132a3e" stroke="none" /><path d="M 2159 194 L 2159 197 L 2157 199 L 2159 200 L 2160 212 L 2160 200 L 2165 198 L 2161 198 Z" fill="#132a3e" stroke="none" /><path d="M 2316 193 L 2305 193 L 2305 214 L 2307 214 L 2307 204 L 2315 203 L 2308 202 L 2307 195 Z" fill="#132a3e" stroke="none" /><path d="M 2105 193 L 2099 193 L 2099 214 L 2101 214 L 2101 206 L 2106 205 L 2101 203 L 2101 195 Z" fill="#132a3e" stroke="none" /><path d="M 2369 192 L 2368 211 L 2370 214 Z" fill="#132a3e" stroke="none" /><path d="M 1333 192 L 1333 195 L 1331 197 L 1333 198 L 1333 209 L 1335 211 L 1334 198 L 1340 196 L 1335 196 Z" fill="#132a3e" stroke="none" /><path d="M 1283 192 L 1283 195 L 1281 197 L 1283 198 L 1284 208 L 1284 198 L 1290 196 L 1285 196 Z" fill="#132a3e" stroke="none" /><path d="M 1271 192 L 1271 195 L 1269 197 L 1271 198 L 1272 207 L 1272 198 L 1278 196 L 1273 196 Z" fill="#132a3e" stroke="none" /><path d="M 1230 192 L 1230 195 L 1228 197 L 1230 198 L 1231 210 L 1231 198 L 1236 196 L 1232 196 Z" fill="#132a3e" stroke="none" /><path d="M 1180 192 L 1180 195 L 1178 197 L 1180 198 L 1180 209 L 1182 211 L 1181 198 L 1187 196 L 1182 196 Z" fill="#132a3e" stroke="none" /><path d="M 1057 192 L 1057 195 L 1055 197 L 1057 198 L 1058 210 L 1058 198 L 1063 196 L 1059 196 Z" fill="#132a3e" stroke="none" /><path d="M 1007 192 L 1007 195 L 1005 197 L 1007 198 L 1008 210 L 1008 198 L 1013 196 L 1009 196 Z" fill="#132a3e" stroke="none" /><path d="M 1257 191 L 1256 194 L 1260 194 L 1259 191 Z" fill="#132a3e" stroke="none" /><path d="M 2086 30 L 2091 26 L 2102 27 L 2102 33 L 2096 39 L 2089 39 L 2085 34 Z" fill="#243a56" stroke="none" /><path d="M 1591 30 L 1596 26 L 1607 27 L 1607 33 L 1601 39 L 1594 39 L 1590 34 Z" fill="#243a56" stroke="none" /><path d="M 1500 29 L 1505 26 L 1515 26 L 1516 32 L 1512 38 L 1503 39 L 1499 34 Z" fill="#243a56" stroke="none" /><path d="M 1099 35 L 1099 30 L 1104 26 L 1116 27 L 1114 35 L 1109 39 L 1103 39 Z" fill="#243a56" stroke="none" /><path d="M 2154 22 L 2158 16 L 2163 14 L 2170 16 L 2173 20 L 2172 25 L 2155 25 Z" fill="#243a56" stroke="none" /><path d="M 2129 14 L 2134 15 L 2139 22 L 2139 32 L 2137 36 L 2133 39 L 2125 38 L 2121 32 L 2121 22 L 2123 18 Z" fill="#243a56" stroke="none" /><path d="M 1957 14 L 1963 16 L 1967 22 L 1966 34 L 1961 39 L 1954 39 L 1950 35 L 1948 30 L 1948 24 L 1950 19 Z" fill="#243a56" stroke="none" /><path d="M 1851 23 L 1852 20 L 1860 14 L 1867 16 L 1870 20 L 1869 25 L 1852 25 Z" fill="#243a56" stroke="none" /><path d="M 1541 14 L 1546 15 L 1551 22 L 1551 31 L 1549 35 L 1545 38 L 1537 37 L 1533 31 L 1534 19 Z" fill="#243a56" stroke="none" /><path d="M 1457 14 L 1462 15 L 1467 21 L 1467 32 L 1465 36 L 1461 39 L 1454 38 L 1449 31 L 1450 20 L 1453 16 Z" fill="#243a56" stroke="none" /><path d="M 1398 22 L 1402 16 L 1409 14 L 1416 19 L 1417 24 L 1399 25 Z" fill="#243a56" stroke="none" /><path d="M 1256 22 L 1260 16 L 1267 14 L 1274 19 L 1275 24 L 1257 25 Z" fill="#243a56" stroke="none" /><path d="M 2191 12 L 2185 16 L 2185 24 L 2189 27 L 2199 29 L 2202 32 L 2202 35 L 2198 39 L 2189 39 L 2184 37 L 2184 40 L 2190 42 L 2197 42 L 2205 37 L 2205 30 L 2202 27 L 2190 24 L 2187 19 L 2190 15 L 2194 14 L 2204 16 L 2204 13 Z" fill="#243a56" stroke="none" /><path d="M 2156 14 L 2151 21 L 2150 27 L 2153 37 L 2162 42 L 2169 42 L 2175 40 L 2175 38 L 2161 39 L 2155 34 L 2154 31 L 2155 28 L 2177 28 L 2174 16 L 2168 12 L 2160 12 Z" fill="#243a56" stroke="none" /><path d="M 2134 12 L 2128 12 L 2124 14 L 2122 17 L 2121 12 L 2118 12 L 2118 53 L 2121 53 L 2122 37 L 2126 41 L 2134 42 L 2141 36 L 2143 28 L 2142 20 L 2140 16 Z" fill="#243a56" stroke="none" /><path d="M 2085 13 L 2084 16 L 2091 14 L 2098 15 L 2102 19 L 2102 22 L 2086 25 L 2082 31 L 2083 38 L 2086 41 L 2094 42 L 2102 37 L 2103 41 L 2106 41 L 2106 22 L 2104 16 L 2098 12 Z" fill="#243a56" stroke="none" /><path d="M 2022 13 L 2019 16 L 2020 25 L 2033 29 L 2036 32 L 2036 36 L 2032 39 L 2023 39 L 2018 37 L 2018 40 L 2025 42 L 2035 41 L 2039 37 L 2039 30 L 2034 26 L 2023 23 L 2022 18 L 2028 14 L 2038 16 L 2038 13 Z" fill="#243a56" stroke="none" /><path d="M 1996 12 L 1991 12 L 1987 14 L 1985 17 L 1984 12 L 1980 12 L 1980 41 L 1984 41 L 1985 19 L 1989 15 L 1996 15 Z" fill="#243a56" stroke="none" /><path d="M 1954 12 L 1951 13 L 1945 21 L 1945 32 L 1950 40 L 1955 42 L 1961 42 L 1969 36 L 1971 28 L 1970 20 L 1964 13 Z" fill="#243a56" stroke="none" /><path d="M 1923 12 L 1917 16 L 1917 24 L 1921 27 L 1931 29 L 1934 32 L 1934 35 L 1930 39 L 1921 39 L 1916 37 L 1916 40 L 1922 42 L 1929 42 L 1937 37 L 1937 30 L 1934 27 L 1922 24 L 1919 19 L 1922 15 L 1926 14 L 1936 16 L 1936 13 Z" fill="#243a56" stroke="none" /><path d="M 1883 12 L 1883 41 L 1887 41 L 1887 21 L 1892 15 L 1895 14 L 1900 15 L 1903 19 L 1904 41 L 1907 41 L 1907 20 L 1905 15 L 1901 12 L 1894 12 L 1890 14 L 1888 17 L 1887 12 Z" fill="#243a56" stroke="none" /><path d="M 1853 14 L 1848 21 L 1848 33 L 1851 38 L 1859 42 L 1873 40 L 1873 37 L 1868 39 L 1858 39 L 1852 34 L 1851 31 L 1852 28 L 1874 28 L 1872 17 L 1865 12 L 1857 12 Z" fill="#243a56" stroke="none" /><path d="M 1739 12 L 1739 41 L 1742 41 L 1742 12 Z" fill="#243a56" stroke="none" /><path d="M 1691 12 L 1699 41 L 1703 41 L 1710 17 L 1712 19 L 1717 41 L 1722 41 L 1729 12 L 1726 12 L 1721 34 L 1719 36 L 1712 12 L 1708 12 L 1703 33 L 1701 36 L 1695 13 Z" fill="#243a56" stroke="none" /><path d="M 1623 12 L 1623 41 L 1626 41 L 1626 21 L 1631 15 L 1634 14 L 1638 15 L 1642 20 L 1642 41 L 1645 41 L 1646 20 L 1650 15 L 1653 14 L 1658 15 L 1661 19 L 1662 41 L 1665 41 L 1665 21 L 1661 13 L 1652 12 L 1645 18 L 1639 12 L 1633 12 L 1629 14 L 1627 17 L 1626 12 Z" fill="#243a56" stroke="none" /><path d="M 1590 13 L 1589 16 L 1596 14 L 1603 15 L 1607 19 L 1607 22 L 1591 25 L 1587 31 L 1588 38 L 1591 41 L 1599 42 L 1607 37 L 1608 41 L 1611 41 L 1611 22 L 1609 16 L 1603 12 Z" fill="#243a56" stroke="none" /><path d="M 1582 12 L 1574 13 L 1571 16 L 1569 15 L 1569 12 L 1566 12 L 1566 41 L 1569 41 L 1569 26 L 1571 19 L 1575 15 L 1582 15 Z" fill="#243a56" stroke="none" /><path d="M 1554 12 L 1551 12 L 1550 17 L 1548 14 L 1544 12 L 1537 12 L 1532 16 L 1529 25 L 1532 37 L 1538 41 L 1543 41 L 1550 36 L 1551 37 L 1551 43 L 1548 48 L 1544 50 L 1533 49 L 1534 52 L 1543 53 L 1552 49 L 1554 45 Z" fill="#243a56" stroke="none" /><path d="M 1499 13 L 1498 16 L 1505 14 L 1512 15 L 1516 19 L 1516 22 L 1500 25 L 1496 30 L 1497 38 L 1500 41 L 1508 42 L 1515 37 L 1516 41 L 1520 41 L 1520 23 L 1517 15 L 1512 12 Z" fill="#243a56" stroke="none" /><path d="M 1483 12 L 1483 41 L 1486 41 L 1486 12 Z" fill="#243a56" stroke="none" /><path d="M 1400 14 L 1396 18 L 1394 25 L 1397 37 L 1402 41 L 1413 42 L 1419 40 L 1419 38 L 1405 39 L 1398 32 L 1399 28 L 1420 28 L 1420 20 L 1418 16 L 1412 12 L 1404 12 Z" fill="#243a56" stroke="none" /><path d="M 1391 12 L 1385 12 L 1379 17 L 1378 12 L 1375 12 L 1375 41 L 1378 41 L 1378 23 L 1380 18 L 1386 14 L 1391 15 Z" fill="#243a56" stroke="none" /><path d="M 1340 12 L 1340 35 L 1342 39 L 1351 42 L 1359 37 L 1360 41 L 1363 41 L 1363 12 L 1360 12 L 1359 34 L 1353 39 L 1348 39 L 1343 34 L 1343 12 Z" fill="#243a56" stroke="none" /><path d="M 1293 13 L 1288 18 L 1286 23 L 1287 34 L 1294 41 L 1307 41 L 1308 38 L 1297 39 L 1291 34 L 1290 22 L 1294 16 L 1299 14 L 1308 16 L 1308 13 Z" fill="#243a56" stroke="none" /><path d="M 1258 14 L 1254 18 L 1252 25 L 1255 37 L 1260 41 L 1271 42 L 1277 40 L 1277 38 L 1263 39 L 1256 32 L 1257 28 L 1278 28 L 1278 20 L 1276 16 L 1270 12 L 1262 12 Z" fill="#243a56" stroke="none" /><path d="M 1218 12 L 1218 41 L 1221 41 L 1221 12 Z" fill="#243a56" stroke="none" /><path d="M 1160 12 L 1156 14 L 1151 20 L 1151 33 L 1153 37 L 1158 41 L 1171 41 L 1172 38 L 1161 39 L 1154 32 L 1154 22 L 1160 15 L 1166 14 L 1172 16 L 1172 13 Z" fill="#243a56" stroke="none" /><path d="M 1147 12 L 1141 12 L 1135 17 L 1134 12 L 1131 12 L 1131 41 L 1134 41 L 1134 23 L 1136 18 L 1142 14 L 1147 15 Z" fill="#243a56" stroke="none" /><path d="M 1099 13 L 1098 16 L 1104 14 L 1113 16 L 1116 22 L 1099 25 L 1096 29 L 1097 39 L 1102 42 L 1107 42 L 1115 37 L 1116 41 L 1119 41 L 1118 17 L 1111 12 Z" fill="#243a56" stroke="none" /><path d="M 1042 5 L 1054 5 L 1059 7 L 1064 12 L 1066 18 L 1066 25 L 1064 31 L 1059 36 L 1054 38 L 1041 37 Z" fill="#243a56" stroke="none" /><path d="M 1828 4 L 1828 11 L 1824 12 L 1824 15 L 1828 16 L 1829 39 L 1831 41 L 1841 42 L 1841 39 L 1834 39 L 1831 35 L 1831 16 L 1841 15 L 1841 12 L 1832 12 L 1831 4 Z" fill="#243a56" stroke="none" /><path d="M 1754 4 L 1754 11 L 1750 12 L 1750 15 L 1754 16 L 1755 39 L 1757 41 L 1767 42 L 1767 39 L 1760 39 L 1757 35 L 1757 16 L 1767 15 L 1767 12 L 1758 12 L 1757 4 Z" fill="#243a56" stroke="none" /><path d="M 1319 4 L 1319 11 L 1315 12 L 1315 15 L 1319 17 L 1319 38 L 1322 41 L 1332 42 L 1332 39 L 1325 39 L 1322 36 L 1322 16 L 1332 15 L 1332 12 L 1323 12 L 1322 4 Z" fill="#243a56" stroke="none" /><path d="M 1233 4 L 1233 11 L 1229 12 L 1229 15 L 1233 16 L 1233 37 L 1236 41 L 1246 42 L 1246 39 L 1239 39 L 1236 36 L 1236 16 L 1246 15 L 1246 12 L 1237 12 L 1236 4 Z" fill="#243a56" stroke="none" /><path d="M 1038 2 L 1038 41 L 1051 41 L 1064 37 L 1068 32 L 1070 25 L 1070 18 L 1067 9 L 1064 6 L 1057 3 Z" fill="#243a56" stroke="none" /><path d="M 1003 3 L 1003 6 L 1014 4 L 1021 8 L 1021 15 L 1016 19 L 1009 19 L 1009 22 L 1019 23 L 1023 31 L 1022 34 L 1016 39 L 1002 38 L 1002 40 L 1009 42 L 1021 40 L 1026 34 L 1026 27 L 1022 22 L 1018 20 L 1024 16 L 1025 8 L 1022 4 L 1017 2 Z" fill="#243a56" stroke="none" /><path d="M 2049 0 L 2049 41 L 2052 41 L 2053 20 L 2056 16 L 2060 14 L 2065 15 L 2069 20 L 2069 41 L 2072 41 L 2071 16 L 2066 12 L 2059 12 L 2053 17 L 2052 0 Z" fill="#243a56" stroke="none" /><path d="M 1776 0 L 1776 41 L 1779 41 L 1779 21 L 1784 15 L 1787 14 L 1792 15 L 1795 18 L 1796 41 L 1799 41 L 1799 19 L 1797 15 L 1793 12 L 1786 12 L 1780 17 L 1779 0 Z" fill="#243a56" stroke="none" /><path d="M 1739 0 L 1739 5 L 1742 5 L 1742 0 Z" fill="#243a56" stroke="none" /><path d="M 1483 0 L 1483 5 L 1486 5 L 1486 0 Z" fill="#243a56" stroke="none" /><path d="M 1471 0 L 1468 0 L 1468 15 L 1466 17 L 1461 12 L 1454 12 L 1450 14 L 1447 18 L 1446 33 L 1448 37 L 1453 41 L 1462 41 L 1466 37 L 1468 38 L 1468 41 L 1471 41 Z" fill="#243a56" stroke="none" /><path d="M 1218 0 L 1218 5 L 1221 5 L 1221 0 Z" fill="#243a56" stroke="none" /><path d="M 1183 0 L 1183 41 L 1186 41 L 1186 21 L 1191 15 L 1194 14 L 1199 15 L 1202 18 L 1203 41 L 1206 41 L 1206 19 L 1204 15 L 1200 12 L 1193 12 L 1187 17 L 1186 0 Z" fill="#243a56" stroke="none" /><path d="M 2851 489 L 2892 490 L 2891 540 L 2850 539 Z" fill="#2c2d42" stroke="none" /><path d="M 271 489 L 335 490 L 334 709 L 270 708 Z" fill="#2c2d42" stroke="none" /><path d="M 2696 488 L 2737 489 L 2736 559 L 2696 559 L 2694 557 L 2694 490 Z" fill="#2c2d42" stroke="none" /><path d="M 2487 488 L 2523 489 L 2522 569 L 2487 569 L 2485 567 L 2485 490 Z" fill="#2c2d42" stroke="none" /><path d="M 2142 488 L 2206 489 L 2205 710 L 2142 710 L 2140 708 L 2140 490 Z" fill="#2c2d42" stroke="none" /><path d="M 1815 488 L 1879 489 L 1878 710 L 1815 710 L 1813 708 L 1813 490 Z" fill="#2c2d42" stroke="none" /><path d="M 1524 488 L 1588 489 L 1587 710 L 1524 710 L 1522 708 L 1522 490 Z" fill="#2c2d42" stroke="none" /><path d="M 1270 488 L 1334 489 L 1333 710 L 1270 710 L 1268 708 L 1268 490 Z" fill="#2c2d42" stroke="none" /><path d="M 1016 488 L 1078 488 L 1080 490 L 1080 708 L 1078 710 L 1016 710 L 1014 708 L 1014 490 Z" fill="#2c2d42" stroke="none" /><path d="M 589 488 L 716 489 L 715 710 L 589 710 L 587 708 L 587 490 Z" fill="#2c2d42" stroke="none" /><path d="M 62 488 L 116 489 L 115 710 L 62 710 L 60 708 L 60 490 Z" fill="#2c2d42" stroke="none" /><path d="M 2763 477 L 2764 546 L 2741 557 L 2740 488 Z" fill="#2c2d42" stroke="none" /><path d="M 142 477 L 143 697 L 120 708 L 119 488 Z" fill="#2c2d42" stroke="none" /><path d="M 2701 485 L 2718 476 L 2756 477 L 2738 486 Z" fill="#2c2d42" stroke="none" /><path d="M 67 485 L 68 483 L 85 475 L 136 476 L 117 486 Z" fill="#2c2d42" stroke="none" /><path d="M 2928 473 L 2929 523 L 2896 539 L 2895 488 Z" fill="#2c2d42" stroke="none" /><path d="M 2766 473 L 2717 474 L 2692 486 L 2692 561 L 2740 561 L 2766 548 Z" fill="#2c2d42" stroke="none" /><path d="M 85 473 L 58 485 L 58 712 L 119 712 L 145 699 L 145 473 Z" fill="#2c2d42" stroke="none" /><path d="M 2857 484 L 2883 471 L 2921 472 L 2894 485 Z" fill="#2c2d42" stroke="none" /><path d="M 2931 468 L 2882 469 L 2847 485 L 2847 543 L 2895 543 L 2903 538 L 2930 526 Z" fill="#2c2d42" stroke="none" /><path d="M 2624 442 L 2625 521 L 2526 567 L 2525 489 L 2528 486 Z" fill="#2c2d42" stroke="none" /><path d="M 2617 442 L 2524 486 L 2492 485 L 2504 478 L 2584 441 Z" fill="#2c2d42" stroke="none" /><path d="M 2627 438 L 2586 438 L 2484 485 L 2483 571 L 2526 571 L 2529 568 L 2626 524 Z" fill="#2c2d42" stroke="none" /><path d="M 2351 422 L 2352 642 L 2210 708 L 2209 488 Z" fill="#2c2d42" stroke="none" /><path d="M 2024 422 L 2025 641 L 1883 708 L 1882 488 Z" fill="#2c2d42" stroke="none" /><path d="M 1733 422 L 1734 642 L 1592 708 L 1591 488 Z" fill="#2c2d42" stroke="none" /><path d="M 861 422 L 862 642 L 720 708 L 719 488 Z" fill="#2c2d42" stroke="none" /><path d="M 479 422 L 480 642 L 339 708 L 337 706 L 337 489 Z" fill="#2c2d42" stroke="none" /><path d="M 2344 421 L 2339 425 L 2207 486 L 2147 485 L 2159 478 L 2285 420 Z" fill="#2c2d42" stroke="none" /><path d="M 2017 421 L 2014 424 L 1880 486 L 1820 485 L 1832 478 L 1958 420 Z" fill="#2c2d42" stroke="none" /><path d="M 1726 421 L 1719 426 L 1589 486 L 1530 485 L 1539 479 L 1667 420 Z" fill="#2c2d42" stroke="none" /><path d="M 1472 421 L 1469 424 L 1335 486 L 1275 485 L 1276 483 L 1413 420 Z" fill="#2c2d42" stroke="none" /><path d="M 1218 421 L 1206 428 L 1080 486 L 1021 485 L 1026 481 L 1158 420 Z" fill="#2c2d42" stroke="none" /><path d="M 855 421 L 717 486 L 594 485 L 599 481 L 731 420 Z" fill="#2c2d42" stroke="none" /><path d="M 472 421 L 463 427 L 335 486 L 276 485 L 277 483 L 414 420 Z" fill="#2c2d42" stroke="none" /><path d="M 2354 418 L 2284 418 L 2138 486 L 2138 712 L 2209 712 L 2354 644 Z" fill="#2c2d42" stroke="none" /><path d="M 2027 418 L 1957 418 L 1811 485 L 1811 712 L 1882 712 L 2027 644 Z" fill="#2c2d42" stroke="none" /><path d="M 1736 418 L 1666 418 L 1520 486 L 1520 712 L 1591 712 L 1736 644 Z" fill="#2c2d42" stroke="none" /><path d="M 1482 418 L 1411 418 L 1266 485 L 1266 712 L 1337 712 L 1482 644 L 1480 593 L 1478 643 L 1337 707 L 1337 488 L 1479 422 L 1481 571 Z" fill="#2c2d42" stroke="none" /><path d="M 1228 418 L 1157 418 L 1012 485 L 1012 712 L 1083 712 L 1228 643 L 1225 592 L 1224 643 L 1082 707 L 1082 489 L 1224 422 L 1226 572 Z" fill="#2c2d42" stroke="none" /><path d="M 864 418 L 730 418 L 585 485 L 585 712 L 719 712 L 864 644 Z" fill="#2c2d42" stroke="none" /><path d="M 483 418 L 412 418 L 267 485 L 267 712 L 338 712 L 483 644 Z" fill="#2c2d42" stroke="none" /><path d="M 2744 360 L 2748 360 L 2755 363 L 2758 366 L 2761 373 L 2761 377 L 2758 384 L 2755 387 L 2748 390 L 2744 390 L 2737 387 L 2734 384 L 2731 377 L 2731 373 L 2734 366 L 2737 363 Z" fill="#2c2d42" stroke="none" /><path d="M 2742 359 L 2737 361 L 2732 366 L 2730 371 L 2730 379 L 2732 384 L 2737 389 L 2742 391 L 2750 391 L 2755 389 L 2760 384 L 2762 379 L 2762 371 L 2760 366 L 2755 361 L 2750 359 Z" fill="#2c2d42" stroke="none" /><path d="M 917 353 L 923 353 L 928 355 L 933 360 L 935 365 L 935 371 L 933 376 L 928 381 L 923 383 L 917 383 L 912 381 L 907 376 L 905 371 L 905 365 L 907 360 L 912 355 Z" fill="#2c2d42" stroke="none" /><path d="M 916 352 L 911 354 L 906 359 L 904 364 L 904 372 L 906 377 L 911 382 L 916 384 L 924 384 L 929 382 L 934 377 L 936 372 L 936 364 L 934 359 L 929 354 L 924 352 Z" fill="#2c2d42" stroke="none" /><path d="M 15 351 L 21 351 L 26 353 L 31 358 L 33 363 L 33 369 L 31 374 L 26 379 L 21 381 L 15 381 L 10 379 L 5 374 L 3 369 L 3 363 L 5 358 L 10 353 Z" fill="#2c2d42" stroke="none" /><path d="M 14 350 L 9 352 L 4 357 L 2 362 L 2 370 L 4 375 L 9 380 L 14 382 L 22 382 L 27 380 L 32 375 L 34 370 L 34 362 L 32 357 L 27 352 L 22 350 Z" fill="#2c2d42" stroke="none" /><path d="M 2429 316 L 2435 316 L 2440 318 L 2445 323 L 2447 328 L 2447 334 L 2445 339 L 2440 344 L 2435 346 L 2429 346 L 2424 344 L 2419 339 L 2417 334 L 2417 328 L 2419 323 L 2424 318 Z" fill="#2c2d42" stroke="none" /><path d="M 2428 315 L 2423 317 L 2418 322 L 2416 327 L 2416 335 L 2418 340 L 2423 345 L 2428 347 L 2436 347 L 2441 345 L 2446 340 L 2448 335 L 2448 327 L 2446 322 L 2441 317 L 2436 315 Z" fill="#2c2d42" stroke="none" /><path d="M 1760 310 L 1769 311 L 1775 316 L 1778 322 L 1777 331 L 1772 337 L 1766 340 L 1757 339 L 1751 334 L 1748 328 L 1748 322 L 1750 317 L 1755 312 Z" fill="#2c2d42" stroke="none" /><path d="M 527 310 L 536 311 L 542 316 L 545 322 L 544 331 L 539 337 L 533 340 L 524 339 L 518 334 L 515 328 L 515 322 L 517 317 L 522 312 Z" fill="#2c2d42" stroke="none" /><path d="M 1759 309 L 1754 311 L 1749 316 L 1747 321 L 1747 329 L 1749 334 L 1754 339 L 1759 341 L 1767 341 L 1772 339 L 1777 334 L 1779 329 L 1779 321 L 1777 316 L 1772 311 L 1767 309 Z" fill="#2c2d42" stroke="none" /><path d="M 526 309 L 521 311 L 516 316 L 514 321 L 514 329 L 516 334 L 521 339 L 526 341 L 534 341 L 539 339 L 544 334 L 546 329 L 546 321 L 544 316 L 539 311 L 534 309 Z" fill="#2c2d42" stroke="none" /><path d="M 917 276 L 923 276 L 928 278 L 933 283 L 935 288 L 935 294 L 933 299 L 928 304 L 923 306 L 917 306 L 912 304 L 907 299 L 905 294 L 905 288 L 907 283 L 912 278 Z" fill="#2c2d42" stroke="none" /><path d="M 916 275 L 911 277 L 906 282 L 904 287 L 904 295 L 906 300 L 911 305 L 916 307 L 924 307 L 929 305 L 934 300 L 936 295 L 936 287 L 934 282 L 929 277 L 924 275 Z" fill="#2c2d42" stroke="none" /><path d="M 229 238 L 238 239 L 244 244 L 247 250 L 246 259 L 241 265 L 235 268 L 226 267 L 220 262 L 217 256 L 218 247 L 223 241 Z" fill="#2c2d42" stroke="none" /><path d="M 228 237 L 223 239 L 218 244 L 216 249 L 216 257 L 218 262 L 223 267 L 228 269 L 236 269 L 241 267 L 246 262 L 248 257 L 248 249 L 246 244 L 241 239 L 236 237 Z" fill="#2c2d42" stroke="none" /><path d="M 2583 234 L 2589 234 L 2594 236 L 2599 241 L 2601 246 L 2601 252 L 2599 257 L 2594 262 L 2589 264 L 2583 264 L 2578 262 L 2573 257 L 2571 252 L 2571 246 L 2573 241 L 2578 236 Z" fill="#2c2d42" stroke="none" /><path d="M 2582 233 L 2577 235 L 2572 240 L 2570 245 L 2570 253 L 2572 258 L 2577 263 L 2582 265 L 2590 265 L 2595 263 L 2600 258 L 2602 253 L 2602 245 L 2600 240 L 2595 235 L 2590 233 Z" fill="#2c2d42" stroke="none" /><path d="M 2068 224 L 2074 224 L 2079 226 L 2084 231 L 2086 236 L 2086 242 L 2084 247 L 2079 252 L 2074 254 L 2068 254 L 2063 252 L 2058 247 L 2056 242 L 2056 236 L 2058 231 L 2063 226 Z" fill="#2c2d42" stroke="none" /><path d="M 2067 223 L 2062 225 L 2057 230 L 2055 235 L 2055 243 L 2057 248 L 2062 253 L 2067 255 L 2075 255 L 2080 253 L 2085 248 L 2087 243 L 2087 235 L 2085 230 L 2080 225 L 2075 223 Z" fill="#2c2d42" stroke="none" /><path d="M 917 200 L 923 200 L 928 202 L 933 207 L 935 212 L 935 218 L 933 223 L 928 228 L 923 230 L 917 230 L 912 228 L 907 223 L 905 218 L 905 212 L 907 207 L 912 202 Z" fill="#2c2d42" stroke="none" /><path d="M 916 199 L 911 201 L 906 206 L 904 211 L 904 219 L 906 224 L 911 229 L 916 231 L 924 231 L 929 229 L 934 224 L 936 219 L 936 211 L 934 206 L 929 201 L 924 199 Z" fill="#2c2d42" stroke="none" /><path d="M 1111 583 L 1124 583 L 1124 604 L 1129 604 L 1131 606 L 1130 610 L 1110 609 L 1111 604 L 1116 604 L 1116 589 L 1110 588 Z" fill="#3b697e" stroke="none" /><path d="M 1365 582 L 1377 581 L 1383 585 L 1385 590 L 1384 594 L 1375 604 L 1384 604 L 1384 610 L 1363 609 L 1364 604 L 1376 592 L 1374 588 L 1369 588 L 1365 590 Z" fill="#3b697e" stroke="none" /><path d="M 1619 581 L 1631 580 L 1638 585 L 1638 591 L 1636 595 L 1639 598 L 1639 603 L 1635 608 L 1630 610 L 1622 610 L 1617 608 L 1618 602 L 1630 602 L 1629 598 L 1622 596 L 1622 592 L 1628 591 L 1630 588 L 1619 588 Z" fill="#3b697e" stroke="none" /><path d="M 1733 424 L 1592 489 L 1592 706 L 1733 641 Z" fill="#3b697e" stroke="none" /><path d="M 1478 424 L 1338 488 L 1338 706 L 1478 641 L 1478 592 L 1469 588 L 1478 575 Z" fill="#3b697e" stroke="none" /><path d="M 1224 424 L 1084 488 L 1084 706 L 1224 641 L 1224 592 L 1215 589 L 1224 575 Z" fill="#3b697e" stroke="none" /><path d="M 861 424 L 720 489 L 720 706 L 861 641 Z" fill="#3b697e" stroke="none" /><path d="M 1524 490 L 1524 708 L 1587 708 L 1587 490 Z" fill="#477ea1" stroke="none" /><path d="M 1270 490 L 1270 708 L 1333 708 L 1333 490 Z" fill="#477ea1" stroke="none" /><path d="M 1016 490 L 1016 708 L 1078 708 L 1078 490 Z" fill="#477ea1" stroke="none" /><path d="M 1722 422 L 1666 422 L 1534 484 L 1590 484 Z" fill="#477ea1" stroke="none" /><path d="M 1467 422 L 1412 422 L 1280 484 L 1335 484 L 1459 427 Z" fill="#477ea1" stroke="none" /><path d="M 1213 422 L 1157 422 L 1036 478 L 1026 484 L 1081 484 Z" fill="#477ea1" stroke="none" /><path d="M 916 355 L 924 356 L 928 361 L 926 365 L 928 367 L 928 371 L 924 375 L 914 375 L 912 373 L 913 370 L 921 370 L 921 368 L 916 366 L 916 364 L 921 361 L 914 361 L 912 357 L 907 364 L 907 372 L 912 379 L 916 381 L 924 381 L 931 376 L 933 372 L 933 364 L 928 357 L 924 355 Z" fill="#477ea1" stroke="none" /><path d="M 914 280 L 923 280 L 926 283 L 926 289 L 920 294 L 926 295 L 926 299 L 912 298 L 912 295 L 920 288 L 920 285 L 912 285 L 912 282 Z" fill="#477ea1" stroke="none" /><path d="M 916 278 L 909 283 L 907 287 L 907 295 L 912 302 L 916 304 L 924 304 L 931 299 L 933 295 L 933 287 L 928 280 L 924 278 Z" fill="#477ea1" stroke="none" /><path d="M 916 202 L 924 204 L 924 218 L 927 218 L 928 221 L 914 221 L 915 218 L 918 218 L 918 208 L 915 208 L 914 204 L 912 204 L 907 211 L 907 219 L 912 226 L 916 228 L 924 228 L 931 223 L 933 219 L 933 211 L 928 204 L 924 202 Z" fill="#477ea1" stroke="none" /><path d="M 589 490 L 589 708 L 715 708 L 715 490 Z" fill="#4f9492" stroke="none" /><path d="M 850 422 L 730 422 L 599 484 L 718 484 Z" fill="#4f9492" stroke="none" /><path d="M 526 312 L 519 317 L 517 321 L 517 329 L 522 336 L 526 338 L 534 338 L 541 333 L 543 329 L 543 321 L 538 314 L 534 312 Z" fill="#4f9492" stroke="none" /><path d="M 2293 757 L 2305 758 L 2295 756 Z" fill="#564f67" stroke="none" /><path d="M 2222 756 L 2222 758 L 2233 758 Z" fill="#564f67" stroke="none" /><path d="M 1966 757 L 1978 758 L 1968 756 Z" fill="#564f67" stroke="none" /><path d="M 1895 756 L 1895 758 L 1906 758 Z" fill="#564f67" stroke="none" /><path d="M 1675 757 L 1687 758 L 1677 756 Z" fill="#564f67" stroke="none" /><path d="M 1604 756 L 1604 758 L 1615 758 Z" fill="#564f67" stroke="none" /><path d="M 1421 757 L 1433 758 L 1423 756 Z" fill="#564f67" stroke="none" /><path d="M 1350 756 L 1350 758 L 1361 758 Z" fill="#564f67" stroke="none" /><path d="M 1166 757 L 1178 758 L 1168 756 Z" fill="#564f67" stroke="none" /><path d="M 1095 756 L 1095 758 L 1106 758 Z" fill="#564f67" stroke="none" /><path d="M 718 757 L 729 758 L 720 756 Z" fill="#564f67" stroke="none" /><path d="M 628 757 L 639 758 L 630 756 Z" fill="#564f67" stroke="none" /><path d="M 421 757 L 433 758 L 423 756 Z" fill="#564f67" stroke="none" /><path d="M 350 756 L 350 758 L 361 758 Z" fill="#564f67" stroke="none" /><path d="M 122 756 L 122 758 L 133 758 Z" fill="#564f67" stroke="none" /><path d="M 790 756 L 790 758 L 801 758 L 793 757 L 792 755 Z" fill="#564f67" stroke="none" /><path d="M 837 748 L 838 755 L 839 750 Z" fill="#564f67" stroke="none" /><path d="M 2340 747 L 2341 756 L 2342 748 Z" fill="#564f67" stroke="none" /><path d="M 2321 747 L 2322 756 L 2323 749 Z" fill="#564f67" stroke="none" /><path d="M 2013 747 L 2014 756 L 2015 748 Z" fill="#564f67" stroke="none" /><path d="M 1994 747 L 1995 756 L 1996 749 Z" fill="#564f67" stroke="none" /><path d="M 1722 747 L 1723 756 L 1724 748 Z" fill="#564f67" stroke="none" /><path d="M 1703 747 L 1704 756 L 1705 749 Z" fill="#564f67" stroke="none" /><path d="M 1468 747 L 1469 756 L 1470 748 Z" fill="#564f67" stroke="none" /><path d="M 1449 747 L 1450 756 L 1451 749 Z" fill="#564f67" stroke="none" /><path d="M 1213 747 L 1214 756 L 1215 748 Z" fill="#564f67" stroke="none" /><path d="M 1194 747 L 1195 756 L 1196 749 Z" fill="#564f67" stroke="none" /><path d="M 468 747 L 469 756 L 470 748 Z" fill="#564f67" stroke="none" /><path d="M 449 747 L 450 756 L 451 749 Z" fill="#564f67" stroke="none" /><path d="M 826 746 L 826 751 L 828 754 L 828 747 Z" fill="#564f67" stroke="none" /><path d="M 816 746 L 819 750 L 819 755 L 820 750 Z" fill="#564f67" stroke="none" /><path d="M 2330 744 L 2330 753 L 2332 755 L 2332 747 Z" fill="#564f67" stroke="none" /><path d="M 2003 744 L 2003 753 L 2005 755 L 2005 747 Z" fill="#564f67" stroke="none" /><path d="M 1712 744 L 1712 753 L 1714 755 L 1714 747 Z" fill="#564f67" stroke="none" /><path d="M 1458 744 L 1458 753 L 1460 755 L 1460 747 Z" fill="#564f67" stroke="none" /><path d="M 1203 744 L 1203 753 L 1205 755 L 1205 747 Z" fill="#564f67" stroke="none" /><path d="M 458 744 L 458 753 L 460 755 L 460 747 Z" fill="#564f67" stroke="none" /><path d="M 799 740 L 800 747 L 801 742 Z" fill="#564f67" stroke="none" /><path d="M 2243 739 L 2241 740 L 2240 744 Z" fill="#564f67" stroke="none" /><path d="M 1916 739 L 1914 740 L 1913 744 Z" fill="#564f67" stroke="none" /><path d="M 1625 739 L 1623 740 L 1622 744 Z" fill="#564f67" stroke="none" /><path d="M 1371 739 L 1369 740 L 1368 744 Z" fill="#564f67" stroke="none" /><path d="M 1116 739 L 1114 740 L 1113 744 Z" fill="#564f67" stroke="none" /><path d="M 371 739 L 369 740 L 368 744 Z" fill="#564f67" stroke="none" /><path d="M 143 739 L 141 740 L 140 744 Z" fill="#564f67" stroke="none" /><path d="M 2209 738 L 2209 756 L 2205 758 L 2215 758 L 2210 756 Z" fill="#564f67" stroke="none" /><path d="M 1882 738 L 1882 756 L 1878 758 L 1888 758 L 1883 756 Z" fill="#564f67" stroke="none" /><path d="M 1591 738 L 1591 756 L 1587 758 L 1597 758 L 1592 756 Z" fill="#564f67" stroke="none" /><path d="M 1337 738 L 1337 756 L 1333 758 L 1343 758 L 1338 756 Z" fill="#564f67" stroke="none" /><path d="M 1082 738 L 1082 756 L 1078 758 L 1088 758 L 1083 756 Z" fill="#564f67" stroke="none" /><path d="M 809 746 L 811 739 L 818 738 L 809 738 Z" fill="#564f67" stroke="none" /><path d="M 705 738 L 706 756 L 701 758 L 711 758 L 707 756 L 707 738 Z" fill="#564f67" stroke="none" /><path d="M 615 738 L 616 756 L 611 758 L 621 758 L 617 756 L 617 738 Z" fill="#564f67" stroke="none" /><path d="M 337 738 L 337 756 L 333 758 L 343 758 L 338 756 Z" fill="#564f67" stroke="none" /><path d="M 109 738 L 109 756 L 105 758 L 115 758 L 110 756 Z" fill="#564f67" stroke="none" /><path d="M 2349 737 L 2352 739 L 2352 760 L 2349 761 L 2353 761 L 2353 737 Z" fill="#564f67" stroke="none" /><path d="M 2139 737 L 2139 761 L 2143 761 L 2140 760 L 2140 739 L 2143 737 Z" fill="#564f67" stroke="none" /><path d="M 2022 737 L 2025 739 L 2025 760 L 2022 761 L 2026 761 L 2026 737 Z" fill="#564f67" stroke="none" /><path d="M 1812 737 L 1812 761 L 1816 761 L 1813 760 L 1813 739 L 1816 737 Z" fill="#564f67" stroke="none" /><path d="M 1731 737 L 1734 739 L 1734 760 L 1731 761 L 1735 761 L 1735 737 Z" fill="#564f67" stroke="none" /><path d="M 1521 737 L 1521 761 L 1525 761 L 1522 760 L 1522 739 L 1525 737 Z" fill="#564f67" stroke="none" /><path d="M 1477 737 L 1480 739 L 1480 760 L 1477 761 L 1481 761 L 1481 737 Z" fill="#564f67" stroke="none" /><path d="M 1267 737 L 1267 761 L 1271 761 L 1268 760 L 1268 739 L 1271 737 Z" fill="#564f67" stroke="none" /><path d="M 1222 737 L 1225 739 L 1225 760 L 1222 761 L 1226 761 L 1226 737 Z" fill="#564f67" stroke="none" /><path d="M 1012 737 L 1012 761 L 1016 761 L 1013 760 L 1013 739 L 1016 737 Z" fill="#564f67" stroke="none" /><path d="M 599 737 L 599 761 L 603 761 L 600 760 L 600 739 L 603 737 Z" fill="#564f67" stroke="none" /><path d="M 477 737 L 480 739 L 480 760 L 477 761 L 481 761 L 481 737 Z" fill="#564f67" stroke="none" /><path d="M 267 737 L 267 761 L 271 761 L 268 760 L 268 739 L 271 737 Z" fill="#564f67" stroke="none" /><path d="M 159 737 L 162 739 L 162 760 L 159 761 L 163 761 L 163 737 Z" fill="#564f67" stroke="none" /><path d="M 39 737 L 39 761 L 43 761 L 40 760 L 40 739 L 43 737 Z" fill="#564f67" stroke="none" /><path d="M 2557 616 L 2569 617 L 2559 615 Z" fill="#564f67" stroke="none" /><path d="M 2604 606 L 2605 615 L 2606 607 Z" fill="#564f67" stroke="none" /><path d="M 2585 606 L 2586 615 L 2587 608 Z" fill="#564f67" stroke="none" /><path d="M 2594 603 L 2594 612 L 2596 614 L 2596 606 Z" fill="#564f67" stroke="none" /><path d="M 2613 596 L 2616 598 L 2616 619 L 2613 621 L 2617 621 L 2617 596 Z" fill="#564f67" stroke="none" /><path d="M 2493 596 L 2493 621 L 2497 621 L 2494 619 L 2494 598 L 2497 596 Z" fill="#564f67" stroke="none" /><path d="M 2755 587 L 2755 605 L 2751 607 L 2761 607 L 2756 605 Z" fill="#564f67" stroke="none" /><path d="M 2685 586 L 2685 611 L 2689 611 L 2686 609 L 2686 588 L 2689 586 Z" fill="#564f67" stroke="none" /><path d="M 2877 583 L 2877 587 L 2879 588 Z" fill="#564f67" stroke="none" /><path d="M 2924 584 L 2926 586 L 2926 581 L 2937 581 L 2937 579 L 2924 579 Z" fill="#564f67" stroke="none" /><path d="M 2881 580 L 2887 582 L 2888 589 L 2888 578 L 2886 580 Z" fill="#564f67" stroke="none" /><path d="M 2958 568 L 2961 570 L 2961 591 L 2958 593 L 2962 593 L 2962 568 Z" fill="#564f67" stroke="none" /><path d="M 2815 568 L 2815 593 L 2819 593 L 2816 591 L 2816 570 L 2819 568 Z" fill="#564f67" stroke="none" /><path d="M 479 424 L 339 488 L 339 706 L 479 641 Z" fill="#564f67" stroke="none" /><path d="M 1482 581 L 1480 582 L 1480 586 L 1482 586 Z" fill="#6e5d7c" stroke="none" /><path d="M 1228 580 L 1226 581 L 1225 586 L 1228 586 Z" fill="#6e5d7c" stroke="none" /><path d="M 271 490 L 271 708 L 333 708 L 333 490 Z" fill="#6e5d7c" stroke="none" /><path d="M 468 422 L 412 422 L 289 479 L 281 484 L 336 484 Z" fill="#6e5d7c" stroke="none" /><path d="M 228 240 L 221 245 L 219 249 L 219 257 L 224 264 L 228 266 L 236 266 L 243 261 L 245 257 L 245 249 L 240 242 L 236 240 Z" fill="#6e5d7c" stroke="none" /><path d="M 252 598 L 222 581 L 218 582 L 217 593 L 160 592 L 160 600 L 217 602 L 218 614 L 221 614 L 251 600 Z" fill="#737e88" stroke="none" /><path d="M 1482 578 L 1483 586 L 1480 587 L 1479 582 Z" fill="#737e88" stroke="none" /><path d="M 1228 578 L 1229 586 L 1225 587 L 1224 583 Z" fill="#737e88" stroke="none" /><path d="M 996 599 L 996 596 L 968 578 L 965 578 L 964 588 L 962 590 L 882 580 L 879 581 L 878 586 L 880 589 L 961 598 L 962 611 Z" fill="#737e88" stroke="none" /><path d="M 2123 599 L 2123 597 L 2095 576 L 2092 577 L 2090 588 L 2049 581 L 2042 581 L 2041 583 L 2042 589 L 2087 596 L 2089 598 L 2087 607 L 2088 609 L 2092 609 Z" fill="#737e88" stroke="none" /><path d="M 570 598 L 567 594 L 543 576 L 539 576 L 538 585 L 536 587 L 503 581 L 497 582 L 497 589 L 533 595 L 535 597 L 535 609 L 567 600 Z" fill="#737e88" stroke="none" /><path d="M 1750 585 L 1751 590 L 1762 593 L 1760 605 L 1796 598 L 1796 596 L 1771 573 L 1767 574 L 1766 581 L 1764 584 L 1752 581 Z" fill="#737e88" stroke="none" /><path d="M 1490 562 L 1483 570 L 1483 574 L 1475 580 L 1470 588 L 1475 590 L 1482 589 L 1483 592 L 1506 596 L 1507 594 L 1492 562 Z" fill="#737e88" stroke="none" /><path d="M 1236 562 L 1229 570 L 1228 575 L 1225 578 L 1223 577 L 1216 586 L 1216 588 L 1221 590 L 1228 589 L 1229 592 L 1252 596 L 1251 590 L 1238 562 Z" fill="#737e88" stroke="none" /><path d="M 2469 530 L 2432 530 L 2432 533 L 2436 540 L 2435 543 L 2367 577 L 2368 583 L 2372 585 L 2439 550 L 2442 552 L 2445 559 L 2448 560 L 2467 535 Z" fill="#737e88" stroke="none" /><path d="M 2646 502 L 2645 511 L 2641 518 L 2641 522 L 2643 524 L 2642 535 L 2658 531 L 2677 523 L 2676 520 L 2650 503 Z" fill="#737e88" stroke="none" /><path d="M 2780 522 L 2781 524 L 2798 523 L 2799 532 L 2802 535 L 2831 516 L 2831 513 L 2797 501 L 2797 513 L 2780 516 Z" fill="#737e88" stroke="none" /><path d="M 2350 424 L 2210 489 L 2210 706 L 2350 642 Z" fill="#769c59" stroke="none" /><path d="M 2851 490 L 2851 539 L 2891 539 L 2891 490 Z" fill="#91031d" stroke="none" /><path d="M 2928 474 L 2896 488 L 2896 537 L 2928 523 Z" fill="#91031d" stroke="none" /><path d="M 2860 484 L 2894 484 L 2918 472 L 2884 472 Z" fill="#91031d" stroke="none" /><path d="M 2745 361 L 2739 363 L 2734 368 L 2732 376 L 2734 382 L 2739 387 L 2747 389 L 2753 387 L 2758 382 L 2760 374 L 2758 368 L 2753 363 Z" fill="#91031d" stroke="none" /><path d="M 2142 490 L 2142 708 L 2205 708 L 2205 490 Z" fill="#93c370" stroke="none" /><path d="M 2339 422 L 2284 422 L 2152 484 L 2208 484 L 2331 427 Z" fill="#93c370" stroke="none" /><path d="M 2067 226 L 2060 231 L 2058 235 L 2058 243 L 2063 250 L 2067 252 L 2075 252 L 2082 247 L 2084 243 L 2084 235 L 2079 228 L 2075 226 Z" fill="#93c370" stroke="none" /><path d="M 2023 424 L 1883 488 L 1883 706 L 2023 642 Z" fill="#9a591e" stroke="none" /><path d="M 1815 490 L 1815 708 L 1878 708 L 1878 490 Z" fill="#c16f26" stroke="none" /><path d="M 2012 422 L 1957 422 L 1825 484 L 1880 484 L 2004 427 Z" fill="#c16f26" stroke="none" /><path d="M 1759 312 L 1752 317 L 1750 321 L 1750 329 L 1755 336 L 1759 338 L 1767 338 L 1774 333 L 1776 329 L 1776 321 L 1771 314 L 1767 312 Z" fill="#c16f26" stroke="none" /><path d="M 142 479 L 120 489 L 120 706 L 142 696 Z" fill="#c77e60" stroke="none" /><path d="M 2623 444 L 2527 488 L 2527 565 L 2623 521 Z" fill="#c77e60" stroke="none" /><path d="M 2696 490 L 2696 557 L 2736 557 L 2736 490 Z" fill="#dc3743" stroke="none" /><path d="M 2762 480 L 2759 480 L 2742 488 L 2742 554 L 2762 546 Z" fill="#dc3743" stroke="none" /><path d="M 2706 484 L 2739 484 L 2752 477 L 2719 477 Z" fill="#dc3743" stroke="none" /><path d="M 2581 236 L 2573 244 L 2573 254 L 2581 262 L 2591 262 L 2599 254 L 2599 244 L 2591 236 Z" fill="#dc3743" stroke="none" /><path d="M 2487 490 L 2487 567 L 2521 567 L 2521 490 Z" fill="#f58886" stroke="none" /><path d="M 2613 442 L 2586 442 L 2497 484 L 2524 484 Z" fill="#f58886" stroke="none" /><path d="M 2428 318 L 2421 323 L 2419 327 L 2419 335 L 2424 342 L 2428 344 L 2436 344 L 2443 339 L 2445 335 L 2445 327 L 2440 320 L 2436 318 Z" fill="#f58886" stroke="none" /><path d="M 62 490 L 62 708 L 115 708 L 115 490 Z" fill="#f6be60" stroke="none" /><path d="M 72 484 L 118 484 L 130 477 L 85 477 Z" fill="#f6be60" stroke="none" /><path d="M 14 353 L 7 358 L 5 362 L 5 370 L 10 377 L 14 379 L 22 379 L 29 374 L 31 370 L 31 362 L 26 355 L 22 353 Z" fill="#f6be60" stroke="none" /></svg>